<svg width="50" height="35" viewBox="0 0 50 35" fill="none" xmlns="http://www.w3.org/2000/svg">
<path d="M26.3853 29.6483C26.3853 33.6045 22.0989 36.0743 18.6758 34.091L4.24465 25.7297C1.61778 24.2077 0.000182326 21.4021 5.56885e-05 18.3662C5.58893e-05 15.6139 1.33125 13.031 3.57274 11.4339L18.2721 0.961578C21.6711 -1.45947 26.3853 0.970176 26.3853 5.1435L26.3853 29.6483ZM21.2506 5.1435L6.55123 15.6158C5.66227 16.2494 5.13469 17.2745 5.13469 18.3662C5.13482 19.5705 5.77742 20.6833 6.81949 21.287L21.2506 29.6483L21.2506 5.1435Z" fill="white"/>
<path d="M33.0604 17.1326C33.06 14.9732 31.6797 14.0438 30.9042 14.0438C29.4863 14.0438 28.3369 12.8944 28.3369 11.4765C28.3369 10.0586 29.4863 8.90918 30.9042 8.90918C35.3445 8.90918 38.1946 13.0444 38.195 17.1326C38.195 21.2211 35.3448 25.3586 30.9042 25.3586C29.4866 25.3586 28.3374 24.2087 28.3369 22.7912C28.3369 21.3734 29.4863 20.2239 30.9042 20.2239C31.6798 20.2239 33.0604 19.2926 33.0604 17.1326Z" fill="white"/>
<path d="M44.8652 17.1315C44.8652 10.2851 40.314 5.55602 35.6264 5.55602C34.2085 5.55602 33.0591 4.40659 33.0591 2.9887C33.0591 1.57081 34.2085 0.421387 35.6264 0.421387C43.9791 0.421387 49.9999 8.35666 49.9999 17.1315C49.9997 25.9062 43.979 33.8416 35.6264 33.8416C34.2088 33.8416 33.0595 32.6918 33.0591 31.2743C33.0591 29.8564 34.2085 28.707 35.6264 28.707C40.3139 28.707 44.865 23.9777 44.8652 17.1315Z" fill="white"/>
</svg>
