<svg width="29" height="39" viewBox="0 0 29 39" fill="none" xmlns="http://www.w3.org/2000/svg">
<path d="M15.9153 0C17.4597 0.000106928 18.7118 1.27653 18.7118 2.85107C18.7118 4.4256 17.4597 5.70203 15.9153 5.70214H5.92707V32.585H15.9153C17.4597 32.5851 18.7118 33.8615 18.7118 35.436C18.7115 37.0103 17.4595 38.287 15.9153 38.2871H0.333984V0H15.9153Z" fill="white"/>
<path d="M19.957 11.9491C20.7536 11.2583 21.9533 11.3515 22.6361 12.1574L28.666 19.2739L22.5359 25.4726C21.794 26.223 20.5913 26.2231 19.8494 25.4726C19.1081 24.7221 19.1078 23.5054 19.8494 22.7552L21.4914 21.0943H11.4223C10.3731 21.0943 9.52246 20.2339 9.52246 19.1725C9.52254 18.1112 10.3731 17.2508 11.4223 17.2508H21.9496L19.751 14.6572C19.0687 13.8515 19.1609 12.6397 19.957 11.9491Z" fill="white"/>
</svg>
