<svg width="64" height="50" viewBox="0 0 64 50" fill="none" xmlns="http://www.w3.org/2000/svg">
<path d="M25.6455 0.0078125C39.154 0.350429 50 11.4089 50 25L49.9912 25.6455C49.9339 27.9045 49.5744 30.0884 48.9561 32.1602L63.0195 40.2793L57.4639 49.9023L43.4824 41.8291C38.9102 46.8478 32.324 49.9999 25 50L24.3545 49.9912C11.0604 49.6544 0.345064 38.9395 0.0078125 25.6455L0 25C0 11.193 11.193 0 25 0L25.6455 0.0078125ZM25 9C16.1635 9 9 16.1635 9 25C9.00033 33.8362 16.1637 41 25 41C33.8361 40.9998 40.9997 33.836 41 25C41 16.1637 33.8363 9.00025 25 9Z" fill="currentColor"/>
</svg>
