<svg width="50" height="50" viewBox="0 0 50 50" fill="none" xmlns="http://www.w3.org/2000/svg">
<path d="M25 0C38.8072 0 49.9998 11.1928 50 25C50 38.8073 38.8073 50 25 50C11.1928 49.9998 0 38.8072 0 25C0.000195603 11.193 11.193 0.000195612 25 0ZM25 5.76562C14.3773 5.76582 5.76582 14.3773 5.76562 25C5.76562 35.6228 14.3772 44.2342 25 44.2344C35.623 44.2344 44.2344 35.623 44.2344 25C44.2342 14.3772 35.6228 5.76562 25 5.76562ZM26.665 22.8193H36.6621V27.2637H26.665V37.2646H22.2207V27.2637H12.2178V22.8193H22.2207V12.8203H26.665V22.8193Z" fill="white"/>
</svg>
