<svg width="49" height="45" viewBox="0 0 49 45" fill="none" xmlns="http://www.w3.org/2000/svg">
<path d="M35.1182 0C42.6608 2.01008e-05 48.7754 6.11461 48.7754 13.6572C48.7754 13.9863 48.7631 14.3125 48.7402 14.6357H48.7754C48.746 14.9296 48.7019 15.2279 48.6465 15.5303C48.3495 17.6955 47.5447 19.6982 46.3564 21.416C41.4447 30.237 30.3175 40.2733 23.4121 44.877C11.9541 36.2835 4.70486 26.6367 1.6582 20.1855C1.132 19.2205 0.718866 18.185 0.436523 17.0967C0.145666 16.1309 0 15.3016 0 14.6357H0.0341797C0.0112965 14.3125 2.13601e-06 13.9862 0 13.6572C0 6.11473 6.11381 0.000217199 13.6562 0C18.009 0 21.8868 2.03607 24.3877 5.20801C26.8886 2.03624 30.7656 0 35.1182 0Z" fill="white"/>
</svg>
