<svg width="64" height="50" viewBox="0 0 64 50" fill="none" xmlns="http://www.w3.org/2000/svg">
<path d="M25.6455 0.00878906C39.154 0.351406 50 11.4099 50 25.001L49.9912 25.6465C49.9339 27.9055 49.5744 30.0893 48.9561 32.1611L63.0195 40.2803L57.4639 49.9033L43.4824 41.8301C38.9102 46.8488 32.324 50.0008 25 50.001L24.3545 49.9922C11.0604 49.6553 0.345064 38.9404 0.0078125 25.6465L0 25.001C0 11.1939 11.193 0.000976562 25 0.000976562L25.6455 0.00878906ZM25 9.00098C16.1635 9.00098 9 16.1645 9 25.001C9.00033 33.8372 16.1637 41.001 25 41.001C33.8361 41.0007 40.9997 33.837 41 25.001C41 16.1647 33.8363 9.00122 25 9.00098Z" fill="#333333"/>
</svg>
